<?xml version="1.0" standalone="no"?>
<!DOCTYPE svg PUBLIC "-//W3C//DTD SVG 20010904//EN"
 "http://www.w3.org/TR/2001/REC-SVG-20010904/DTD/svg10.dtd">
<svg version="1.0" xmlns="http://www.w3.org/2000/svg"
 width="122.000000pt" height="158.000000pt" viewBox="0 0 122.000000 158.000000"
 preserveAspectRatio="xMidYMid meet">

<g transform="translate(0.000000,158.000000) scale(0.100000,-0.100000)"
fill="#000000" stroke="none">
<path d="M288 1373 c-61 -60 -116 -120 -124 -135 -11 -22 -14 -106 -14 -456 0
-405 1 -431 19 -453 36 -46 192 -203 219 -221 24 -16 52 -18 237 -18 179 0
214 2 235 16 38 25 178 164 211 208 l29 39 0 283 c0 244 -2 285 -16 298 -13
14 -49 16 -243 16 -208 0 -229 -2 -244 -18 -14 -15 -17 -41 -17 -143 0 -154 4
-161 89 -167 l61 -4 0 -100 0 -99 -92 3 -93 3 0 365 0 365 254 3 c167 1 259 6
268 13 18 15 19 279 1 297 -9 9 -99 12 -341 12 l-330 0 -109 -107z"/>
</g>
</svg>
